<?xml version="1.0" standalone="no"?>
<!DOCTYPE svg PUBLIC "-//W3C//DTD SVG 20010904//EN"
 "http://www.w3.org/TR/2001/REC-SVG-20010904/DTD/svg10.dtd">
<svg version="1.0" xmlns="http://www.w3.org/2000/svg"
 width="1200.000000pt" height="1200.000000pt" viewBox="0 0 1200.000000 1200.000000"
 preserveAspectRatio="xMidYMid meet">

<g transform="translate(0.000000,1200.000000) scale(0.100000,-0.100000)"
fill="#000000" stroke="none">
<path d="M2960 7010 c0 -1083 3 -1560 11 -1560 5 0 108 27 227 59 445 122 897
230 1502 359 l85 18 3 1342 2 1342 -915 0 -915 0 0 -1560z"/>
<path d="M5907 8563 c-4 -3 -7 -560 -7 -1236 l0 -1230 48 6 c26 4 157 24 292
46 329 53 755 114 1155 165 l330 42 3 1107 2 1107 -908 0 c-500 0 -912 -3
-915 -7z"/>
<path d="M8675 6766 c-27 -13 -58 -33 -69 -44 -20 -23 -19 -24 35 -36 42 -9
107 -63 130 -107 l21 -41 -26 -27 c-54 -57 -66 -147 -46 -354 11 -114 32 -167
86 -220 l39 -38 -30 -57 c-27 -51 -68 -92 -130 -128 -16 -9 -12 -13 30 -33 27
-13 73 -25 102 -28 106 -11 181 44 234 172 l23 55 67 0 c220 0 627 129 737
233 80 75 97 181 47 283 -35 71 -83 106 -199 143 -180 58 -291 74 -513 75
l-203 1 -26 40 c-86 129 -190 167 -309 111z"/>
<path d="M7225 5516 c-573 -177 -701 -218 -1045 -332 l-275 -90 0 -830 0 -829
913 -3 912 -2 0 1115 0 1115 -22 -1 c-13 0 -230 -64 -483 -143z"/>
<path d="M4715 4683 c-715 -261 -1413 -542 -1677 -674 l-78 -39 0 -270 0 -270
915 0 915 0 0 640 c0 352 -1 640 -2 639 -2 0 -34 -12 -73 -26z"/>
</g>
</svg>
